<svg xmlns="http://www.w3.org/2000/svg" width="1024" height="1024"><path d="M542.5 44.709c-113.554 2.37-226.419 53.906-303.093 138.397-75.694 83.41-115.19 189.12-112.048 299.894 2.324 81.949 26.69 158.617 71.984 226.5 20.303 30.428 49.309 63.141 76.907 86.735 6.462 5.525 11.75 10.372 11.75 10.772 0 .4-9.563 6.722-21.25 14.047A127270.07 127270.07 0 00178 876.807c-37.125 23.338-80.1 50.329-95.5 59.981-15.4 9.651-28.395 17.889-28.877 18.307-1.446 1.252 6.309 9.905 8.878 9.905 1.244 0 9.627-1.558 18.63-3.461 9.003-1.904 40.444-8.453 69.869-14.552 29.425-6.1 103-21.393 163.5-33.984 60.5-12.591 114.994-23.91 121.098-25.153l11.099-2.259 11.901 2.734c35.724 8.206 53.652 10.12 94.902 10.134 43.51.014 65.023-2.403 102.417-11.51 142.619-34.732 258.132-141.431 304.15-280.942 14.963-45.361 21.259-85 21.288-134.007.019-32.447-1.459-49.24-6.955-79-12.733-68.944-42.308-132.939-87.808-190-13.166-16.511-47.623-50.868-64.592-64.405-15.557-12.41-42.546-30.661-58.5-39.559-67.625-37.718-141.907-55.978-221-54.327m-7 11.957C411.204 62.639 297.588 122.63 222.378 222c-38.601 51.002-65.072 111.34-76.773 175-5 27.201-6.059 40.198-6.072 74.5-.012 31.457.595 40.856 4.103 63.5 13.582 87.68 55.229 169.237 118.527 232.111 12.21 12.129 28.999 26.766 41.087 35.822 3.163 2.369 5.75 4.594 5.75 4.944 0 .351-1.913 1.806-4.25 3.234-2.337 1.428-20.675 12.929-40.75 25.559a463953.695 463953.695 0 01-106.254 66.809c-38.365 24.115-69.582 44.018-69.372 44.228.211.211 2.35-.073 4.754-.631 5.496-1.274 9.705-2.153 115.372-24.083 47.85-9.931 93.3-19.378 101-20.993 7.7-1.616 36.95-7.686 65-13.49 28.05-5.804 55.844-11.6 61.765-12.881 9.763-2.112 11.246-2.204 15.931-.988 21.936 5.69 45.021 9.548 68.45 11.438 21.178 1.709 67.464.656 86.854-1.977 81.676-11.089 154.28-43.318 216.605-96.152 15.101-12.802 41.623-40.145 54.268-55.95 11.541-14.425 30.016-41.613 38.536-56.712 22.016-39.016 39.505-88.256 46.986-132.288 4.421-26.018 5.474-39.478 5.515-70.5.039-29.331-.702-40.874-4.01-62.5-23.187-151.586-126.337-277.078-270.786-329.439C645.599 62.794 587.999 54.144 535.5 56.666m-104 84.935c-40.297 1.667-60.98 9.689-70.361 27.29-6.927 12.996-8.602 25.106-7.868 56.886.527 22.817 2.328 77.241 3.374 101.973l.56 13.25h18.04l-.688-23.75c-.378-13.062-1.333-38.6-2.121-56.75-2.295-52.85-1.803-67.1 2.735-79.228 5.335-14.258 18.492-19.274 55.829-21.283 14.611-.786 38.304-.667 94.5.475 41.25.838 89.403 1.526 107.006 1.53 54.675.01 74.783 4.158 88.966 18.352 13.118 13.127 16.091 31.063 13.13 79.213-.881 14.332-1.602 29.987-1.602 34.789v8.73l8.75-.289 8.75-.289.229-4.5c.126-2.475.975-18.225 1.886-35 2.735-50.334.467-68.832-10.499-85.646-7.405-11.355-17.123-19.019-31.312-24.696-16.831-6.733-33.467-8.582-77.804-8.645-18.975-.027-53.175-.465-76-.974-51.726-1.152-114.913-1.876-125.5-1.438m96.071 43.97c-2.172 2.173-1.965 4.039.652 5.872 3.335 2.336 51.868 2.323 54.206-.014 2.145-2.146 1.975-5.143-.363-6.394-1.189-.636-11.767-1.035-27.429-1.035-21.843 0-25.719.225-27.066 1.571m-84.05 58.817c-3.127 3.127-3.775 7.076-3.362 20.485.325 10.568.47 11.216 3.111 13.857 2.688 2.689 3.139 2.78 15.341 3.103 20.499.544 21.389-.293 21.389-20.132v-13.855l-2.923-2.923-2.923-2.923h-14.123c-13.554 0-14.218.096-16.51 2.388m61.264.513c-3.228 2.884-3.249 2.962-3.618 13.762-.715 20.894 1.407 23.33 20.333 23.33 18.91 0 21.077-2.41 20.325-22.6-.616-16.569-1.605-17.393-20.856-17.393-12.864 0-12.956.017-16.184 2.901m61.138.022L563 247.846v13.931c0 13.343.102 14.041 2.415 16.537 3.262 3.52 5.434 3.912 19.475 3.522 11.651-.324 12.166-.432 14.84-3.106 2.689-2.688 2.78-3.14 3.103-15.341.544-20.499-.293-21.389-20.132-21.389h-13.855l-2.923 2.923m61.383-.512c-2.792 2.399-2.808 2.482-3.13 16.402l-.324 13.99 2.99 3.349 2.989 3.348 12.515.33c13.919.367 18.418-.823 20.515-5.425.666-1.46 1.139-7.915 1.139-15.529v-13.03l-2.923-2.923-2.923-2.923h-14.021c-13.376 0-14.151.111-16.827 2.411m59.332 34.973c-1.451 4.087-2.638 7.879-2.638 8.428 0 .548 2.389 2.345 5.309 3.993 6.51 3.674 14.518 12.267 19.118 20.515 1.896 3.399 6.004 12.48 9.129 20.18 10.124 24.945 14.355 31.826 21.781 35.421 10.445 5.056 21.672 1.108 35.098-12.341 12.103-12.125 30.553-36.44 47.033-61.986l5.496-8.52-7.013-4.537c-3.857-2.495-7.379-4.537-7.825-4.537-.447 0-5.224 6.637-10.616 14.75-21.645 32.566-43.754 59.018-50.809 60.789-4.838 1.214-6.269-.965-15.249-23.225-12.129-30.062-21.812-43.56-37.843-52.751-7.918-4.539-8.015-4.505-10.971 3.821m-241.852 32.169c-3.928 2.132-5.026 7.046-4.628 20.704.329 11.244.451 11.811 3.112 14.473 2.688 2.689 3.139 2.78 15.341 3.103 20.499.544 21.389-.293 21.389-20.132v-13.855l-2.923-2.923-2.923-2.923-13.327.04c-9.78.029-14.049.432-16.041 1.513m59.98 1.365l-3.266 2.918v13.376c0 19.754 1.021 20.798 20.315 20.773 13.266-.016 15.824-.847 18.487-5.999 1.508-2.918 1.752-5.494 1.5-15.818l-.302-12.333-3.266-2.917C534.969 310 534.968 310 521.5 310c-13.468 0-13.469 0-16.734 2.918m61.157.005L563 315.846v13.855c0 19.839.89 20.676 21.389 20.132 12.201-.323 12.653-.414 15.341-3.103 2.674-2.674 2.782-3.189 3.106-14.84.39-14.041-.002-16.213-3.522-19.475-2.496-2.313-3.194-2.415-16.537-2.415h-13.931l-2.923 2.923m-122.075 60.919l-3.348 2.989-.33 12.515c-.367 13.919.823 18.418 5.425 20.515 1.46.666 7.915 1.139 15.529 1.139h13.03l2.923-2.923 2.923-2.923v-14.021c0-13.376-.111-14.151-2.411-16.827-2.399-2.792-2.482-2.808-16.402-3.13l-13.99-.324-3.349 2.99m61.161-.005c-3.498 3.498-4.401 8.65-3.825 21.821.408 9.322.512 9.681 3.634 12.47 3.202 2.861 3.264 2.872 16.682 2.872 13.45 0 13.473-.004 16.715-2.901 3.241-2.896 3.247-2.918 3.631-14.143.438-12.799-.656-17.874-4.505-20.902-2.339-1.841-4.008-2.054-16.053-2.054-13.431 0-13.444.002-16.279 2.837m-134.127 33.544c-11.858 4.237-23.985 17.737-43.675 48.619-9.763 15.312-28.611 47.929-28.032 48.509.233.232 3.663 2.203 7.624 4.381l7.202 3.958 4.128-7.174c26.303-45.702 39.533-65.447 51.255-76.494 3.312-3.122 6.357-5.184 7.367-4.989 2.635.507 5.766 7.066 12.66 26.52 10.453 29.5 14.886 38.533 24.687 50.311 4.394 5.28 19.525 16.688 20.647 15.567 1.558-1.559 7.094-16.143 6.235-16.429-3.373-1.124-11.066-7.46-14.985-12.341-6.351-7.91-11.686-19.233-19.312-40.985-3.6-10.266-7.685-21.066-9.08-24-6.542-13.766-16.052-19.266-26.721-15.453M735.39 462.75c.359 13.613 1.204 39.6 1.878 57.75 1.634 44.025 1.608 85.016-.061 93.826-2.871 15.165-7.927 23.276-17.352 27.839-14.387 6.966-29.538 8.24-89.855 7.556-100.037-1.136-183.913-2.805-193.951-3.861-33.207-3.492-49.951-16.194-57.16-43.36-3.003-11.314-3.519-39.831-1.481-81.749.876-18.012 1.592-33.874 1.592-35.25 0-2.478-.08-2.501-8.793-2.501h-8.793l-1.298 29.25c-2.227 50.185-2.444 63.907-1.2 75.888 1.626 15.667 4.277 25.751 9.629 36.63 7.955 16.169 21.248 27.162 40.212 33.255 17.871 5.741 21.137 6.021 81.243 6.952 30.525.473 77.55 1.408 104.5 2.077 56.453 1.403 93.416.85 107.5-1.609 26.333-4.597 39.028-12.593 46.983-29.594 8.14-17.393 8.622-30.287 5.059-135.349-.559-16.5-1.023-37.312-1.03-46.25L753 438H734.737l.653 24.75M546.041 598.619c-11.457 9.64-5.653 27.374 8.959 27.374 5.02 0 9.986-2.516 12.48-6.323 4.468-6.818 3.597-13.828-2.472-19.897-3.531-3.531-4.16-3.773-9.814-3.773-5.058 0-6.547.426-9.153 2.619m-5.708 116.996c-1.538 2.346-1.562 2.887-.235 5.25 1.148 2.045 2.245 2.635 4.902 2.635s3.754-.59 4.902-2.635c1.327-2.363 1.303-2.904-.235-5.25C548.46 713.772 547.082 713 545 713s-3.46.772-4.667 2.615M391 751v37h7l.006-15.25c.006-17.268.808-21.329 5.197-26.328C407.208 741.861 410.915 740 416 740c5.865 0 9.826 2.403 12.057 7.316 1.64 3.614 1.902 6.671 1.921 22.434L430 788h7.178l-.354-20.25c-.328-18.711-.526-20.573-2.609-24.499-3.408-6.423-9.13-9.761-16.642-9.709-6.764.047-11.164 1.871-16.323 6.766l-3.25 3.084V714h-7v37m359 0v37h7v-24.16l5.902 5.33c3.246 2.932 9.289 8.393 13.428 12.138 7.287 6.592 7.673 6.798 12.203 6.5l4.678-.308-15.032-13.5c-8.267-7.425-15.059-13.725-15.092-14-.034-.275 6.2-5.9 13.852-12.5l13.912-12-4.932-.302-4.932-.303-11.046 9.803c-6.075 5.391-11.472 9.952-11.993 10.135-.577.203-.948-7.718-.948-20.25V714h-7v37m-416 .91V788h6.952l.274-16.75.274-16.75 12-.549c13.53-.619 16.73-1.764 21.159-7.57 2.168-2.843 2.837-4.938 3.115-9.751.477-8.259-2.434-14.108-8.774-17.63-4.148-2.305-5.692-2.527-19.75-2.84l-15.25-.339v36.089m246-34.741c-3.933 1.111-8.475 4.984-10.589 9.031-3.176 6.08-.425 18.116 4.776 20.9 2.127 1.138 2.093 1.213-1.382 2.996-14.191 7.28-13.942 27.519.432 35.098 3.653 1.926 6.16 2.302 17.513 2.625l13.25.377V716l-10.25.09c-5.638.05-11.825.535-13.75 1.079M341 735v12h10.05c14.496 0 18.95-2.86 18.95-12.167 0-8.894-5.043-11.764-20.75-11.809L341 723v12m241.643-10.972c-6.172 1.85-8.755 7.074-6.65 13.452 1.707 5.17 5.719 7.528 13.991 8.222l7.016.588V723l-5.75.086c-3.163.047-7.036.471-8.607.942m-73.176 10.97c-5.198 2.573-7.467 6.471-7.467 12.83 0 6.379 2.636 9.703 12.058 15.206 3.77 2.202 7.549 4.995 8.398 6.207 6.034 8.614-6.903 17.303-15.274 10.259-3.639-3.062-4.225-3.066-6.42-.047-1.696 2.334-1.668 2.449 1.225 4.883 11.461 9.643 28.513 3.269 28.513-10.659 0-6.742-2.678-10.521-10.808-15.253-11.743-6.833-14.393-11.538-9.232-16.387 2.001-1.879 3.207-2.211 6.453-1.775 2.197.294 5.3 1.466 6.897 2.603l2.904 2.068 2.159-2.298c2.064-2.197 2.08-2.367.375-3.911-2.586-2.34-10.339-5.677-13.248-5.701-1.375-.012-4.315.877-6.533 1.975m128.033-1.12c-7.707 2.023-15.368 8.419-18.594 15.521-2.528 5.567-2.548 17.596-.039 23.101 2.576 5.65 6.596 10.1 11.988 13.27 4.024 2.365 5.714 2.728 12.645 2.713 8.569-.019 13.908-1.945 18-6.493l2-2.223.5 3.866c.473 3.657.69 3.867 4 3.867h3.5l.267-26.25.266-26.25h-4.016c-4.003 0-4.017.014-4.017 3.901v3.901l-2.967-2.771c-5.878-5.491-15.988-8.134-23.533-6.153m67.303.459c-12.714 3.591-20.82 14.579-20.775 28.163.029 9.073 6.442 18.95 15.472 23.832 3.3 1.784 5.662 2.162 13.5 2.162 10.289 0 15.306-1.721 21.25-7.291 3.371-3.159 3.448-4.516.371-6.532-2.238-1.466-2.518-1.408-4.75.983-5.912 6.335-18.269 8.624-26.211 4.855-7.149-3.393-12.649-11.875-12.649-19.509 0-8.348 6.958-17.787 14.695-19.935 8.584-2.384 19.733.208 24.64 5.728 1.543 1.736 2.24 1.897 4.25.981 2.934-1.336 3.02-2.721.38-6.077-5.105-6.491-20.207-10.174-30.173-7.36M446 735.347c0 .257 4.759 11.129 10.576 24.159l10.576 23.692-3.724 8.651a2170.542 2170.542 0 00-5.089 11.901l-1.366 3.25H464.522l4.411-10.25c2.426-5.638 9.283-21.485 15.239-35.218C490.127 747.8 495 736.185 495 735.722c0-.464-1.602-.703-3.559-.532l-3.56.31-8.011 18.5c-4.406 10.175-8.34 18.838-8.741 19.251-.402.412-4.561-7.913-9.243-18.5l-8.514-19.251-3.686-.31c-2.027-.171-3.686-.1-3.686.157m95.233 25.903l.267 26.25h7l.267-26.25.266-26.25h-8.066l.266 26.25m93.92-18.639c-16.828 8.386-13.744 35.328 4.489 39.217 20.482 4.368 33.861-20.588 19.003-35.446-6.783-6.783-14.849-8.078-23.492-3.771m-50.674 11.353c-9.805 1.123-14.479 5.643-14.479 14.001 0 3.2.698 4.827 3.284 7.648 3.061 3.34 3.872 3.655 11.904 4.63 4.741.574 9.338.769 10.216.432 1.353-.519 1.596-2.676 1.596-14.144V753l-3.25.137c-1.788.075-5.959.447-9.271.827" fill="undefined" fill-rule="evenodd"/></svg>